<svg xmlns="http://www.w3.org/2000/svg" enable-background="new 0 0 512 512" viewBox="0 0 512 512"><path d="M256,326c-67.5,0-130.9-6.8-178.7-19.2C42,297.7,0,281,0,256h10c0,14,26.1,29.8,69.8,41.1c47,12.2,109.6,18.9,176.2,18.9s129.2-6.7,176.2-18.9C475.9,285.8,502,270,502,256h10c0,25-42,41.7-77.3,50.8C386.9,319.2,323.5,326,256,326z"/><path d="M256 442c-50.4 0-95.2-7.5-133.3-22.2-36.4-14.1-58.8-31.8-71.2-44.3-.4-.4-.8-1-1.1-1.6L6.9 273.1C2.3 267.7 0 261.9 0 256c0-13.1 11.2-25.1 33.3-35.6l4.3 9C19.8 237.9 10 247.4 10 256c0 3.6 1.7 7.4 5 11.1.3.4.6.8.8 1.3l43.4 100.7C79 388.6 136.5 432 256 432c98 0 165.8-32.3 196.8-62.9l43.4-100.7c.2-.5.5-.9.8-1.3 3.3-3.8 5-7.5 5-11.1 0-8.6-9.7-18-27.4-26.5l4.3-9C500.8 231 512 243 512 256c0 5.9-2.3 11.6-6.9 17.1L461.6 374c-.3.6-.6 1.1-1.1 1.6-9.6 9.6-31.4 27.9-70.1 43.1C351.1 434.2 305.9 442 256 442zM260.9 191.3l-10-.5c.1-1.6.1-3.1.1-4.7 0-26.2-11.7-50.6-32.1-67l6.3-7.8c22.8 18.3 35.8 45.6 35.8 74.8C261 187.8 261 189.5 260.9 191.3zM123.4 110.7l-4.8-8.7c14.1-7.8 30.2-12 46.4-12 16 0 31.8 4 45.8 11.6l-4.8 8.8c-12.5-6.8-26.7-10.4-41-10.4C150.4 100 136.1 103.7 123.4 110.7zM79.3 178.3l-10-.9c1.2-13.6 5.2-26.6 11.9-38.5l8.7 4.9C84 154.5 80.4 166.1 79.3 178.3z"/><path d="M256,310c-31.1,0-61.2-1.3-89.5-4c-2.2-0.2-4-1.8-4.4-3.9c-1.4-6.5-2.1-13.3-2.1-20.1c0-30.6,14.8-59.6,39.6-77.7c16.5-12,36-18.3,56.4-18.3s40,6.3,56.4,18.3c24.5,17.8,39.3,46.5,39.6,76.7l-10,0.1c-0.3-27.1-13.5-52.7-35.4-68.7C291.8,201.7,274.3,196,256,196s-35.8,5.7-50.5,16.4C183.3,228.6,170,254.6,170,282c0,4.9,0.4,9.7,1.2,14.4c26.9,2.4,55.4,3.6,84.8,3.6c30.8,0,60.6-1.3,88.5-3.9l0.9,10C317.2,308.7,287.1,310,256,310z"/><path d="M251.1 191.3c-.1-1.7-.1-3.5-.1-5.3 0-52.9 43.1-96 96-96 24.2 0 47.3 9 65.1 25.4 17.7 16.3 28.5 38.4 30.6 62.3l-10 .9c-3.8-44-41.4-78.5-85.7-78.5-47.4 0-86 38.6-86 86 0 1.6 0 3.2.1 4.7L251.1 191.3zM198.4 308.4c-47.8-2.7-91.1-8.9-121.8-17.4C42.4 281.5 25 269.8 25 256c0-52.9 43.1-96 96-96 33.7 0 64.3 17.2 82 46 .4.6.8 1.3 1.2 2l-8.7 5c-.3-.6-.7-1.2-1-1.7C178.6 185.4 151.2 170 121 170c-47.4 0-86 38.6-86 86 0 6.3 11.6 16.3 44.3 25.4 30.1 8.3 72.6 14.4 119.7 17.1L198.4 308.4z"/><path d="M313.6 308.4l-.6-10c47.1-2.7 89.6-8.7 119.7-17.1 32.6-9 44.3-19 44.3-25.4 0-47.4-38.6-86-86-86-30.2 0-57.6 15.4-73.4 41.2-.4.6-.7 1.2-1 1.7l-8.7-5c.4-.7.8-1.3 1.2-2 17.6-28.8 48.2-46 82-46 52.9 0 96 43.1 96 96 0 13.7-17.4 25.5-51.6 35C404.6 299.5 361.4 305.7 313.6 308.4zM256 419.4c-1.3 0-2.6-.5-3.5-1.5l-35.4-35.4c-2-2-2-5.1 0-7.1l35.4-35.4c2-2 5.1-2 7.1 0l35.4 35.4c2 2 2 5.1 0 7.1l-35.4 35.4C258.6 418.9 257.3 419.4 256 419.4zM227.7 379l28.3 28.3 28.3-28.3L256 350.7 227.7 379zM110.7 169.5c-10.6-5.4-19-11.9-25-19.4-19-24-16.8-49.2-16.7-50.3.2-2.2 1.8-4 3.9-4.4 1.5-.3 37.3-7.6 60.9 16 8.8 8.8 14.3 20.7 16.4 35.6l-9.9 1.4c-1.8-12.7-6.4-22.7-13.5-29.9-15.7-15.7-38.8-14.9-47.9-13.9.2 7.3 2.3 23.7 14.6 39.2 5 6.3 12.3 11.9 21.6 16.6L110.7 169.5zM405.7 118.2l-5.9-8.1c10.8-7.8 16.8-22.1 19.5-30.1h-33.9c-10.1 0-19.6 6-28.3 18l-8.1-5.9c10.5-14.5 23-22.1 36.4-22.1H426c1.5 0 2.9.7 3.9 1.9s1.3 2.7 1 4.2C430.6 77.2 424.4 104.7 405.7 118.2zM205 138.5c-1.1 0-2.1-.3-3-1l-8.5-6.5c-2-1.5-2.6-4.3-1.3-6.5l30.5-52c.7-1.2 1.9-2.1 3.3-2.4 1.4-.3 2.8 0 4 .9l18.5 13.5c1.1.8 1.9 2.1 2 3.5s-.3 2.8-1.3 3.9l-40.5 45C207.7 137.9 206.4 138.5 205 138.5zM203.1 125.7l1.3 1 33.7-37.5-9.6-7L203.1 125.7z"/><rect width="36.6" height="10" x="182.4" y="125.2" transform="rotate(37.406 200.736 130.217)"/><path d="M219.5,236.9l-2-9.8c3.2-0.7,9.5-2.6,15-8c5.5-5.5,7.5-11.8,8.1-15.1l9.8,2c-0.9,4.4-3.5,12.9-10.9,20.2C232.2,233.5,223.8,236,219.5,236.9z"/></svg>